<?xml version="1.0" encoding="UTF-8"?>
<svg width="20px" height="20px" viewBox="0 0 20 20" version="1.1" xmlns="http://www.w3.org/2000/svg" xmlns:xlink="http://www.w3.org/1999/xlink">
    <!-- Generator: Sketch 63.1 (92452) - https://sketch.com -->
    <title>icon-facebook</title>
    <desc>Created with Sketch.</desc>
    <g id="Working-Concept" stroke="none" stroke-width="1" fill="none" fill-rule="evenodd">
        <g id="Desktop-HD" transform="translate(-45.000000, -531.000000)" fill="#FFFFFF">
            <path d="M62.5564844,531 C63.9051172,531 65,532.094922 65,533.443516 L65,548.556484 C65,549.905078 63.9050781,551 62.5564844,551 L58.3975781,551 L58.3975781,543.464258 L60.9991406,543.464258 L61.4941406,540.236875 L58.3975781,540.236875 L58.3975781,538.142461 C58.3975781,537.259531 58.8301172,536.398867 60.2171094,536.398867 L61.625,536.398867 L61.625,533.651211 C61.625,533.651211 60.3472656,533.433164 59.1257031,533.433164 C56.5753906,533.433164 54.9085156,534.978828 54.9085156,537.77707 L54.9085156,540.236875 L52.0736328,540.236875 L52.0736328,543.464258 L54.9085156,543.464258 L54.9085156,551 L47.4435156,551 C46.0949219,551 45,549.905078 45,548.556484 L45,533.443516 C45,532.094922 46.0948828,531 47.4435156,531 L62.5564844,531 Z" id="icon-facebook" transform="translate(55.000000, 541.000000) rotate(-360.000000) translate(-55.000000, -541.000000) "></path>
        </g>
    </g>
</svg>