<?xml version="1.0" encoding="UTF-8"?>
<svg width="20px" height="20px" viewBox="0 0 20 20" version="1.1" xmlns="http://www.w3.org/2000/svg" xmlns:xlink="http://www.w3.org/1999/xlink">
    <!-- Generator: Sketch 63.1 (92452) - https://sketch.com -->
    <title>icon-instagram</title>
    <desc>Created with Sketch.</desc>
    <g id="Working-Concept" stroke="none" stroke-width="1" fill="none" fill-rule="evenodd">
        <g id="Desktop-HD" transform="translate(-45.000000, -567.000000)" fill="#FFFFFF">
            <path d="M62.5564844,567 C63.9051172,567 65,568.094922 65,569.443516 L65,584.556484 C65,585.905078 63.9050781,587 62.5564844,587 L47.4435156,587 C46.0949219,587 45,585.905078 45,584.556484 L45,569.443516 C45,568.094922 46.0948828,567 47.4435156,567 L62.5564844,567 Z M55,570.164062 C53.1434766,570.164062 52.9106641,570.171914 52.1815625,570.205195 C51.4539453,570.238398 50.9570313,570.353945 50.5221875,570.522969 C50.0726563,570.697656 49.6914453,570.931406 49.3114063,571.311406 C48.9313672,571.691445 48.6976172,572.072695 48.5229297,572.522187 C48.3539453,572.957031 48.2383984,573.453945 48.2051563,574.181563 C48.1719141,574.910664 48.1640625,575.143477 48.1640625,577 C48.1640625,578.856523 48.1719141,579.089336 48.2051563,579.818437 C48.2383984,580.546055 48.3539453,581.042969 48.5229297,581.477813 C48.6976172,581.927305 48.9313672,582.308555 49.3114063,582.688594 C49.6914453,583.068633 50.0726563,583.302383 50.5221875,583.47707 C50.9570313,583.646055 51.4539453,583.761602 52.1815625,583.794805 C52.9106641,583.828086 53.1434766,583.835938 55,583.835938 C56.8565234,583.835938 57.0893359,583.828086 57.8184375,583.794805 C58.5460547,583.761602 59.0429688,583.646055 59.4778125,583.47707 C59.9273047,583.302383 60.3085547,583.068633 60.6885938,582.688594 C61.0686328,582.308555 61.3023828,581.927305 61.4770703,581.477813 C61.6460547,581.042969 61.7616016,580.546055 61.7948047,579.818437 C61.8280859,579.089336 61.8359375,578.856523 61.8359375,577 C61.8359375,575.143477 61.8280859,574.910664 61.7948047,574.181563 C61.7616016,573.453945 61.6460547,572.957031 61.4770703,572.522187 C61.3023828,572.072695 61.0686328,571.691445 60.6885938,571.311406 C60.3085547,570.931406 59.9273047,570.697656 59.4778125,570.522969 C59.0429688,570.353945 58.5460547,570.238398 57.8184375,570.205195 C57.0893359,570.171914 56.8565234,570.164062 55,570.164062 Z M55,571.395781 C56.8252734,571.395781 57.0414844,571.402734 57.7623047,571.435625 C58.4287891,571.466055 58.7907422,571.577422 59.0316406,571.670977 C59.3507422,571.795 59.5784375,571.943164 59.8176563,572.182344 C60.056875,572.421563 60.205,572.649297 60.3290234,572.968359 C60.4226172,573.209258 60.5339844,573.571211 60.564375,574.237695 C60.5972656,574.958516 60.6042578,575.174727 60.6042578,577 C60.6042578,578.825273 60.5972656,579.041484 60.564375,579.762305 C60.5339844,580.428789 60.4226172,580.790742 60.3290234,581.031641 C60.205,581.350742 60.056875,581.578438 59.8176563,581.817656 C59.5784375,582.056875 59.3507422,582.205 59.0316406,582.329023 C58.7907422,582.422617 58.4287891,582.533984 57.7623047,582.564375 C57.0416016,582.597266 56.8253906,582.604258 55,582.604258 C53.1746094,582.604258 52.9584375,582.597266 52.2376953,582.564375 C51.5712109,582.533984 51.2092578,582.422617 50.9683594,582.329023 C50.6492578,582.205 50.4215625,582.056875 50.1823438,581.817656 C49.943125,581.578438 49.7949609,581.350742 49.6709766,581.031641 C49.5773828,580.790742 49.4660156,580.428789 49.4355859,579.762305 C49.4026953,579.041484 49.3957422,578.825273 49.3957422,577 C49.3957422,575.174727 49.4026953,574.958516 49.4355859,574.237695 C49.4660156,573.571211 49.5773828,573.209258 49.6709766,572.968359 C49.7949609,572.649297 49.943125,572.421563 50.1823438,572.182344 C50.4215625,571.943164 50.6492578,571.795 50.9683594,571.670977 C51.2092578,571.577422 51.5712109,571.466055 52.2376953,571.435625 C52.9585156,571.402734 53.1747266,571.395781 55,571.395781 Z M55,573.489648 C53.0612891,573.489648 51.4896484,575.061289 51.4896484,577 C51.4896484,578.938711 53.0612891,580.510352 55,580.510352 C56.9387109,580.510352 58.5103516,578.938711 58.5103516,577 C58.5103516,575.061289 56.9387109,573.489648 55,573.489648 Z M55,579.278633 C53.7415234,579.278633 52.7213672,578.258477 52.7213672,577 C52.7213672,575.741523 53.7415234,574.721367 55,574.721367 C56.2584766,574.721367 57.2786328,575.741523 57.2786328,577 C57.2786328,578.258477 56.2584766,579.278633 55,579.278633 L55,579.278633 Z M59.469375,573.350977 C59.469375,573.804023 59.1020703,574.17125 58.6490234,574.17125 C58.1960156,574.17125 57.82875,573.804023 57.82875,573.350977 C57.82875,572.89793 58.1960156,572.530664 58.6490234,572.530664 C59.1020703,572.530664 59.469375,572.89793 59.469375,573.350977 Z" id="icon-instagram"></path>
        </g>
    </g>
</svg>