<?xml version="1.0" encoding="UTF-8"?>
<svg width="327px" height="280px" viewBox="0 0 327 280" version="1.1" xmlns="http://www.w3.org/2000/svg" xmlns:xlink="http://www.w3.org/1999/xlink">
    <!-- Generator: Sketch 63.1 (92452) - https://sketch.com -->
    <title>Logo</title>
    <desc>Created with Sketch.</desc>
    <defs>
        <filter x="-21.6%" y="-26.1%" width="143.1%" height="152.3%" filterUnits="objectBoundingBox" id="filter-1">
            <feOffset dx="0" dy="0" in="SourceAlpha" result="shadowOffsetOuter1"></feOffset>
            <feGaussianBlur stdDeviation="15" in="shadowOffsetOuter1" result="shadowBlurOuter1"></feGaussianBlur>
            <feColorMatrix values="0 0 0 0 0   0 0 0 0 0   0 0 0 0 0  0 0 0 0.498197115 0" type="matrix" in="shadowBlurOuter1" result="shadowMatrixOuter1"></feColorMatrix>
            <feMerge>
                <feMergeNode in="shadowMatrixOuter1"></feMergeNode>
                <feMergeNode in="SourceGraphic"></feMergeNode>
            </feMerge>
        </filter>
    </defs>
    <g id="Working-Concept" stroke="none" stroke-width="1" fill="none" fill-rule="evenodd">
        <g id="Desktop-HD" transform="translate(-1506.000000, -7.000000)" fill="#FFFFFF" fill-rule="nonzero">
            <g id="Logo" filter="url(#filter-1)" transform="translate(1536.000000, 36.000000)">
                <g id="logo" transform="translate(49.000000, 18.000000)">
                    <g id="grain-left" transform="translate(0.000000, 12.503727)">
                        <path d="M25.0267387,35.3173257 C25.1077062,34.7547818 25.2501019,34.2029343 25.4513441,33.6717891 C25.6383821,33.1369061 25.8724239,32.619847 26.150694,32.1267432 L26.974928,30.6507848 L27.3870449,29.9159459 L27.8491154,29.2125104 C29.0545913,27.3214685 30.3637328,25.4993508 31.7704707,23.7546045 C34.5770421,20.2693704 37.6524745,17.0121664 40.9681718,14.0132789 C44.268877,11.0071134 47.787874,8.25272697 51.4958868,5.77303437 L52.8945867,4.85605594 L54.3245077,4.0144456 L55.7856496,3.19795795 L57.2780125,2.44427705 C59.2705881,1.42782304 61.3633645,0.623712244 63.5222088,0.0450595157 L63.5534298,0.158111651 C61.4310847,0.789135696 59.3801612,1.64166268 57.4341174,2.70178469 L55.9667313,3.48686896 L54.555543,4.35988268 L53.1381104,5.23289639 L51.7706314,6.17499751 C48.1160997,8.690212 44.6515269,11.4738634 41.4052656,14.5031715 C38.1479444,17.5121012 35.1213015,20.7642792 32.351181,24.2319358 C30.9699793,25.9596108 29.6878383,27.7650944 28.5110002,29.6395962 L28.0614181,30.3304704 L27.6617895,31.0590286 L26.850044,32.5035837 C26.562811,32.9746342 26.3817293,33.4959302 26.1069847,33.9732614 C25.8475011,34.4727254 25.5378381,34.9441425 25.1828436,35.3801324 L25.0267387,35.3173257 Z" id="Path"></path>
                        <path d="M22.204362,34.9279239 C22.2245208,34.4169307 22.308434,33.9105102 22.4541298,33.4205621 C22.579135,32.9331592 22.7527727,32.459705 22.9723981,32.0074104 L23.5968178,30.6382234 L23.9152718,29.9536299 L24.2836794,29.3255625 C25.2305045,27.5651785 26.2727748,25.85845 27.4057775,24.2130937 C29.6880286,20.9327643 32.2248509,17.839292 34.992476,14.9616607 C37.7584975,12.0749535 40.7371072,9.40226874 43.9029441,6.96636246 C47.0749958,4.57970627 50.4655944,2.38147031 54.2370889,1.0939321 L54.2745541,1.20698424 C50.5779899,2.56989053 47.2685659,4.84977526 44.1776887,7.29923819 C41.092752,9.77523117 38.1957331,12.4792359 35.5107443,15.3887465 C32.8112405,18.2708121 30.3334802,21.3551367 28.0988833,24.6150569 C26.9631455,26.2390839 25.9207418,27.927158 24.9767851,29.6709996 L24.6146218,30.299067 L24.3523655,30.9836605 L23.7279459,32.3277248 C23.5031548,32.767372 23.3720267,33.2384225 23.159724,33.6780697 C22.9516074,34.1402762 22.6940779,34.5783174 22.3916879,34.98445 L22.204362,34.9279239 Z" id="Path"></path>
                        <path d="M27.1185445,36.7367581 C27.1739835,36.2212991 27.2935588,35.714883 27.4744637,35.2293963 C27.6373433,34.7494481 27.8464776,34.2866647 28.0988833,33.8476479 L28.8294543,32.5224257 L29.1916176,31.8943583 L29.6037346,31.2662908 C30.6660876,29.5693421 31.8252874,27.9357235 33.0755077,26.3736457 C35.5556777,23.2534174 38.2761393,20.3343595 41.2116955,17.6435086 C44.1451405,14.9428945 47.2760391,12.4676319 50.5779899,10.2385937 C53.8999023,8.06548044 57.4466058,6.09334875 61.268054,5.05703751 L61.268054,5.17008964 C57.4715826,6.30689167 54.0372747,8.3669528 50.7965368,10.6154342 C47.5591941,12.8952379 44.4952202,15.4144804 41.6300566,18.1522432 C38.7405566,20.8528222 36.060252,23.7713487 33.6125086,26.8823803 C32.387774,28.4288512 31.2535748,30.0457191 30.2156658,31.7247801 L29.8160373,32.3528475 L29.4663623,32.9809149 L28.7607681,34.2810145 C28.5110002,34.7018196 28.3486511,35.1665895 28.1363485,35.5936754 C27.903858,36.043324 27.6210337,36.4647707 27.293382,36.8498102 L27.1185445,36.7367581 Z" id="Path"></path>
                        <path d="M19.912742,34.6704163 C19.8379177,33.8305266 19.9531973,32.9844989 20.2499286,32.1958306 L20.6682897,31.0213446 L20.8743482,30.4309612 L21.1178718,29.8657005 C21.7589276,28.3417032 22.4843918,26.8550396 23.2908521,25.4127025 C24.8824398,22.5358851 26.6989841,19.7909501 28.7233029,17.2038614 C30.7472979,14.6178455 32.959681,12.1868019 35.342151,9.93084067 C37.6958608,7.63473028 40.3954023,5.72701699 43.3409664,4.27823391 L43.39092,4.38500537 C40.5230874,5.92163189 37.9125305,7.90105415 35.6543608,10.2511551 C31.0400231,14.8554984 27.0962672,20.0931055 23.9402486,25.808385 C23.1616941,27.2342855 22.461297,28.7019703 21.8421986,30.2048569 L21.6049192,30.7638369 L21.4113491,31.3416589 L21.0179647,32.4847416 C20.832365,33.2863401 20.5181172,34.0521535 20.0875795,34.752065 L19.912742,34.6704163 Z" id="Path"></path>
                        <path d="M16.6033179,33.7408765 C16.4773361,32.9795421 16.5395246,32.1987237 16.7843996,31.4672724 L17.115342,30.3807158 L17.2839353,29.8405778 L17.4837496,29.3130012 C18.006074,27.9027742 18.6064556,26.5230555 19.2820781,25.1803176 C20.6210584,22.5007792 22.1725601,19.9341426 23.921516,17.5053337 C25.6586327,15.062135 27.5746825,12.7528022 29.6536882,10.5965921 C31.7063507,8.42298721 34.0877214,6.58943033 36.70963,5.16380897 L36.7595835,5.26429976 C34.2196908,6.78090441 31.9315754,8.68821026 29.9783864,10.9169065 C27.9681513,13.0784321 26.1209902,15.387751 24.4522727,17.8256481 C22.7708949,20.2707781 21.2763263,22.8406647 19.9814281,25.5131933 C19.3186033,26.8331685 18.7307057,28.1898771 18.2205648,29.5767895 L18.0269947,30.0980855 L17.8708898,30.6256621 L17.55868,31.6808153 C17.4262465,32.4176994 17.1617746,33.1242405 16.7781554,33.7659992 L16.6033179,33.7408765 Z" id="Path"></path>
                        <path d="M29.7785721,38.7905385 C29.7623324,38.0200828 29.9383726,37.2578242 30.2905962,36.5734605 L30.7713993,35.54343 L31.014923,35.0346954 L31.2896676,34.5385221 C32.010251,33.2214124 32.80454,31.9464808 33.6687064,30.7198722 C35.3803284,28.2658144 37.2868876,25.955336 39.3696576,23.8111306 C41.4387518,21.6571587 43.6658775,19.6626605 46.032215,17.8444901 C48.3802195,15.9970474 51.0011855,14.5305651 53.7999952,13.4982636 L53.8374604,13.6113157 C51.103812,14.7384625 48.5627837,16.2897883 46.3069597,18.2087692 C41.7154066,21.9335371 37.6670454,26.2888555 34.2806376,31.146958 C33.4453778,32.3602335 32.6762101,33.6182189 31.9765292,34.9153625 L31.7142729,35.3989745 L31.4832377,35.8951477 L31.0211672,36.8937749 C30.7849013,37.6054403 30.4208792,38.267488 29.9471654,38.8470646 L29.7785721,38.7905385 Z" id="Path"></path>
                        <path d="M19.9814281,54.0714188 C18.3017393,51.8857442 19.9814281,49.4048779 22.0420129,47.7907446 C23.9714695,46.2896635 30.7838877,42.9295028 31.9140872,44.4180226 C32.9506238,45.7683675 29.172885,51.5905525 26.7251601,53.4873161 C24.5521798,55.1328527 21.6361401,56.2382514 19.9814281,54.0714188 Z" id="Path"></path>
                        <path d="M13.8433832,52.2311813 C11.1209136,52.5954604 9.81587656,49.9073318 9.47244577,47.28201 C9.15399176,44.8513891 9.66601585,37.2329313 11.514298,37.0005464 C13.2002309,36.7744421 16.3160849,42.9860289 16.7219577,46.0635592 C17.0778768,48.7768105 16.5720969,51.8669021 13.8433832,52.2311813 Z" id="Path"></path>
                        <path d="M14.730059,59.849639 C15.2961995,57.8147006 15.9372703,55.8006977 16.6532715,53.8076305 C18.7623405,48.230598 21.3619066,42.8539607 24.4210517,37.7416659 L24.3211445,37.6788592 C21.1887848,42.7711673 18.5160053,48.1353426 16.3348175,53.7071397 C15.6104907,55.6457744 14.9569315,57.6116255 14.3741399,59.6046927 L14.730059,59.849639 Z" id="Path"></path>
                        <path d="M18.2455415,119.101519 C17.2339818,116.400829 16.3223291,113.656175 15.523072,110.886397 L14.8986523,111.696604 C15.6979095,114.472662 16.6074807,117.21313 17.6273661,119.918007 L18.2455415,119.101519 Z" id="Path"></path>
                        <path d="M41.4239982,157.156124 C40.9119741,156.622267 40.431171,156.057006 39.9316353,155.510587 C39.4320995,154.964169 38.9325638,154.41775 38.4704933,153.839928 C34.644285,149.303984 31.1765149,144.474083 28.0988833,139.394377 C25.6196439,135.312293 23.3824032,131.086407 21.3988607,126.738819 L19.9252303,125.63342 C22.0710292,130.540731 24.5344463,135.301227 27.2996262,139.88427 C30.3909702,145.022725 33.875353,149.911299 37.7211898,154.50568 C38.1895045,155.089782 38.7015286,155.636201 39.1948201,156.201462 C39.6881116,156.766722 40.1876473,157.325702 40.6996714,157.86584 C41.7486964,158.946116 42.7665004,160.045234 43.8779673,161.056423 C46.0447034,163.116484 48.3737886,165.107458 51.1462118,166.332189 L51.2398747,166.175172 C48.9482547,164.259567 46.731565,162.33768 44.5648289,160.321584 C43.4720945,159.297834 42.4605347,158.217558 41.4239982,157.156124 Z" id="Path"></path>
                        <path d="M10.8586573,116.878161 C11.8434743,116.88726 12.7726833,116.419942 13.3563359,115.622026 C13.9585907,114.871887 14.1632776,113.875227 13.9058251,112.946459 L10.8586573,116.878161 Z" id="Path"></path>
                        <path d="M1.87325889,65.8602442 C1.49188016,65.6465769 1.03897605,65.6032996 0.624419629,65.7409114 C0.0936629443,66.0235417 -0.043709374,66.9970462 0.0499535703,68.2092164 L1.87325889,65.8602442 Z" id="Path"></path>
                        <path d="M19.182171,107.023783 C18.8674906,107.437279 18.5776596,107.869323 18.3142277,108.317602 C17.0154349,110.622609 16.4409688,113.555684 18.8262518,114.91859 C19.5678756,115.366079 20.4677226,115.462563 21.2864651,115.182379 L24.527203,111.012011 L19.182171,107.023783 Z" id="Path"></path>
                        <path d="M4.78929855,62.1420851 L9.5785971,56.0058664 L10.3154123,56.5522851 C8.66694445,53.7385431 5.94447486,50.6107673 4.69563561,51.0127305 C2.92228386,51.5968332 3.79022715,59.1776069 4.5457749,61.5014563 C4.62694945,61.7149993 4.708124,61.9285422 4.78929855,62.1420851 Z" id="Path"></path>
                        <path d="M22.872491,65.9356123 C23.222166,65.7157887 23.5655968,65.4834038 23.890295,65.2321768 C26.3317757,63.3479745 30.1344913,57.5195089 29.0792221,56.1628833 C27.9365342,54.6743635 21.1366044,58.0470855 19.2071478,59.5356053 C18.4147572,60.1309743 17.7285611,60.8572822 17.177784,61.6835959 L22.872491,65.9356123 Z" id="Path"></path>
                    </g>
                    <g id="hop" transform="translate(39.338437, 0.000000)">
                        <path d="M14.6613729,116.663523 C14.4990238,116.908469 14.3241863,117.159696 14.1431046,117.417204 L14.1431046,120.676874 C14.8924081,119.62172 15.5792697,118.648216 16.1787126,117.781483 L14.6613729,116.663523 Z" id="Path"></path>
                        <path d="M78.1648491,130.713391 L77.7277554,130.380515 C77.1907545,132.968153 76.5476023,135.587194 75.8544965,138.099464 C74.7256568,135.32834 73.3548981,132.663286 71.7583037,130.135569 L70.5094645,131.718299 C71.4336055,133.263345 72.307793,134.827233 73.0446082,136.359717 C70.6281042,143.701825 65.4454213,154.535988 60.6249017,161.042767 C58.8015964,157.048258 55.8418474,152.752277 52.9632729,148.581909 C50.8839555,145.567185 48.6422891,142.301235 47.3434962,139.745 L48.1864627,138.608198 L48.1864627,138.225077 L47.6119967,138.966197 L46.3069597,137.992692 C44.9932897,139.825456 43.531339,141.545931 41.9360223,143.136564 C41.0930558,141.97464 40.0003214,140.398191 38.7827031,138.570514 L37.2591192,139.531458 L37.1592121,139.531458 C37.5338639,140.090438 37.8960273,140.636856 38.2457023,141.145591 C35.8229541,145.944026 30.1282471,151.533826 25.6698909,155.251985 C24.7395057,153.813711 23.796632,152.463366 22.8912236,151.150705 C19.2258804,145.868658 16.3285733,141.692009 16.890551,136.918697 C17.6810939,131.545761 18.934655,126.252148 20.6370687,121.097679 C21.7735125,125.437625 23.2408986,129.425853 25.0954249,131.699457 L25.957124,132.760891 C25.6828865,131.913139 25.543793,131.027067 25.545007,130.135569 L25.545007,129.005048 C24.4822997,126.989727 23.6446397,124.862279 23.0473285,122.661567 L22.9599097,122.774619 L19.0760197,119.916912 C18.2018322,122.517111 17.3838425,125.406221 16.7157135,128.132034 C16.3910153,129.344204 16.128759,130.449603 15.9601657,131.366581 L15.9039679,131.668053 C15.4856068,133.646466 15.1858854,135.392493 15.0360247,136.692593 C14.9896961,137.185209 14.9730145,137.680191 14.9860711,138.174832 C14.4303376,142.401726 13.8246506,147.363458 13.456243,150.422147 C11.2582859,146.145007 8.89797971,140.059034 6.3878128,132.264717 L3.74651777,135.662562 L4.06497178,136.171297 L4.83300793,134.745584 L5.07028738,134.312217 C7.46805876,141.60408 10.3216565,149.05924 13.2564287,153.907921 L14.6738613,156.238051 L14.9923153,153.5248 C14.9923153,153.5248 15.0297805,153.15424 15.0984666,152.576418 C18.0145063,162.135604 27.4557311,171.035319 33.2066359,175.098915 L34.8176385,176.241998 L34.6802662,174.263586 C34.4554751,171.029039 34.2181956,168.284384 33.9809162,165.935412 C37.0218398,172.62433 41.1804745,180.104613 44.7521548,184.777434 L45.6700516,185.970762 L46.3319364,184.620417 C47.0000654,183.257511 48.5298935,180.563102 50.3032453,177.447888 C54.0497631,170.903425 57.1718612,165.301064 58.8453058,161.570343 C59.107562,162.12723 59.3448415,162.679929 59.5571442,163.228441 L60.1378544,164.742084 L61.1556584,163.485949 C65.7201659,157.833342 71.2150586,147.112231 74.1872961,138.928513 C74.5098289,139.767635 74.7747878,140.628011 74.980309,141.503589 L75.7358568,144.826066 L76.7848817,141.585238 C78.1660551,137.242819 79.2714248,132.816488 80.0943058,128.333015 L78.1648491,130.713391 Z M16.2349103,145.001925 C16.2786197,144.700452 16.3597943,144.574839 16.3847711,144.562278 C16.4494058,144.541672 16.5167822,144.530874 16.5845853,144.530874 L16.6158063,144.530874 C18.0067144,147.213908 19.6060341,149.782308 21.3988607,152.212139 C22.4853508,153.776027 23.603062,155.39644 24.7020405,157.129907 L25.2640182,158.015482 L26.0820079,157.387414 C26.7938463,156.809592 28.1113717,155.723036 29.6786649,154.291042 C29.7669632,154.326998 29.8591885,154.352298 29.9534096,154.36641 C30.8713064,155.735597 31.9952618,164.296156 32.6321698,172.391945 C25.4700767,166.827267 14.6613729,155.478089 16.2349103,145.001925 Z M48.6173123,176.486944 C47.2997869,178.817074 46.1196338,180.883416 45.2953999,182.415901 C38.8014357,173.352888 31.2272256,156.583488 31.5019703,152.802522 C31.5154938,152.676936 31.5405782,152.552884 31.5769006,152.431962 C34.3867889,149.70615 37.5088871,146.251779 39.4383437,142.81625 C40.0627634,143.714387 40.6184968,144.474348 41.0618348,145.058451 L41.6487892,145.837254 L42.3980928,145.209187 C43.7445148,144.041135 44.9761287,142.745538 46.0759244,141.340292 C47.7097551,144.191992 49.4918209,146.955131 51.4147122,149.61822 C53.6626229,152.87789 55.9604871,156.219209 57.6589085,159.378388 C56.116592,163.335213 51.5583287,171.343072 48.6173123,176.486944 Z" id="Shape"></path>
                        <path d="M58.4207005,37.1313457 C62.1122701,38.1322861 65.6593569,39.6100766 68.9733922,41.5278177 C72.9213506,43.6822519 76.5335989,46.407794 79.6946772,49.617326 L81.8301923,51.1874945 L83.1914271,50.8232154 C79.4684385,46.3706577 74.9593195,42.6485988 69.891289,39.844597 C65.214386,37.2004331 59.7132491,35.102688 54.9551715,34.5688307 L58.4207005,37.1313457 Z" id="Path"></path>
                        <path d="M66.1884806,42.8467592 L65.3954677,43.8453864 C65.9021661,44.1581641 66.3919852,44.4977992 66.8628538,44.8628556 L68.0305185,43.3868972 C66.6041016,42.2730578 65.0190294,41.3816716 63.3286387,40.7427334 L66.1884806,42.8467592 Z" id="Path"></path>
                        <path d="M1.54856068,63.265231 C2.8888545,60.5380099 4.58565792,58.0032833 6.59387128,55.728422 C9.9157837,52.1107536 18.9761125,45.0512759 23.7404343,45.0512759 L23.7404343,45.0512759 C24.2534876,45.0237749 24.7628197,45.1529465 25.2015762,45.4218356 C25.4393002,47.7855811 25.937739,50.1153869 26.6876949,52.3682613 C24.1900164,52.2866125 14.1618372,55.9356842 12.3260435,57.4493267 C9.49580493,59.8985614 6.97887119,62.6918013 4.83300793,65.7649393 L6.33161503,66.8828993 C8.38841663,63.9377256 10.8027831,61.2623988 13.518685,58.9190045 C15.5168278,57.2923098 24.9455642,54.2838669 26.4941248,54.2210602 C26.7064275,54.3278316 27.0623467,54.5476552 27.5306614,54.8491276 C27.6493012,55.1945647 27.7741851,55.5462824 27.8928248,55.8980002 L29.2790364,54.1205694 C27.3495797,48.3737525 26.3192873,43.8516671 27.5618824,42.8844433 C30.4404569,40.6359619 38.2332139,37.7908165 42.8913843,37.7908165 C43.2660361,37.7908165 43.6406878,37.7908165 44.0215838,37.8473426 L45.364086,36.1138765 C44.5383945,35.9775707 43.703144,35.9082599 42.8664075,35.9066143 C37.7836317,35.9066143 29.553781,38.9213379 26.3879735,41.3959235 C25.8115268,41.8916736 25.4341986,42.5815299 25.3264601,43.3366518 C24.8233303,43.1784645 24.2987753,43.1000633 23.7716553,43.1042669 L23.7279459,43.1042669 C21.3114419,43.1042669 18.1081692,44.5551026 14.9860711,46.4958309 L14.8362104,46.5397957 C18.9823567,40.0016138 32.5135301,33.8214304 42.5729303,33.8214304 C43.6178724,33.81561 44.6616933,33.8912042 45.6950284,34.0475347 C46.063436,34.1040608 46.413111,34.1605868 46.7440534,34.2233936 L48.0803114,32.577857 C47.4558918,32.4396821 46.7565418,32.307788 46.0197266,32.1947358 C34.037114,30.3544983 15.0547572,39.1537228 12.1574502,47.8964213 L11.9139265,48.6249795 C9.51278862,50.3517163 7.27422725,52.296409 5.22639229,54.4346031 C3.15845434,56.7592329 1.40144365,59.3457464 -1.5296734e-14,62.128429 L1.54856068,63.265231 Z" id="Path"></path>
                        <polygon id="Path" points="81.0808888 127.968736 81.1932843 129.249994 81.5929129 128.345577"></polygon>
                        <path d="M48.8795685,31.5289844 L49.5789185,30.6245673 L51.7643872,32.2324199 C54.3557287,32.018877 57.7650598,30.6936547 58.6330031,30.3482176 C62.4669396,28.7906104 66.1572597,15.594914 67.5497154,6.72032137 C68.1741351,2.91423282 66.644307,1.30009955 65.2705838,0.621786744 C62.3732767,-0.816487643 58.0148277,0.904417081 56.2914295,2.71953192 C55.3235791,3.74328181 55.0425903,4.88008384 55.5920795,5.82846564 C56.5349532,7.54937036 53.3004595,12.3603668 50.7028738,16.2229814 C49.5414533,17.9501668 48.3425676,19.7401589 47.4246708,21.3417309 C44.0777816,27.1953192 45.6762958,28.991592 48.8795685,31.5289844 Z M49.0606502,22.2712706 C49.9473261,20.7262248 51.1274792,18.967636 52.2701671,17.2467313 C55.5983237,12.2912794 58.7453987,7.6121771 57.2655241,4.88636451 C57.1468844,4.67282159 57.4091407,4.25829709 57.6838853,3.99450878 C59.1325388,2.46830495 62.6230446,1.35662562 64.4775709,2.27988473 C65.6514798,2.86398742 66.0760851,4.24573574 65.7264101,6.39372631 C64.0716981,16.8573295 60.2939593,27.6349664 57.9461415,28.5896289 C54.080984,30.1597974 50.9214207,30.6434093 50.3531989,30.3042529 L50.1721172,30.1597974 C47.3497404,27.9364387 46.2944713,27.1011091 49.0606502,22.2712706 Z" id="Shape"></path>
                    </g>
                    <g id="grain-right" transform="translate(98.033882, 10.677146)">
                        <path d="M40.5248339,132.786013 C40.4077646,133.345399 40.2319403,133.890691 40.0003214,134.412708 C39.7858886,134.936178 39.5202445,135.436908 39.2073085,135.907509 L38.3019,137.326941 L37.8460737,138.042938 L37.346538,138.71497 C36.0302934,140.532226 34.6148496,142.274649 33.1067287,143.93421 C30.1020722,147.245716 26.8406726,150.311952 23.3532941,153.103994 C19.8837035,155.911371 16.2101928,158.453763 12.3635086,160.709891 L10.9148551,161.53894 L9.4224922,162.298901 L7.93012928,163.046302 L6.394057,163.712053 C4.352254,164.606101 2.22420969,165.285918 0.043709374,165.740711 L0.043709374,165.621378 C2.19497287,165.118773 4.28783976,164.39041 6.28790566,163.448265 L7.79900116,162.75111 L9.26014309,161.966026 L10.7275292,161.180941 L12.1449618,160.320489 C15.9291418,158.024483 19.5397609,155.450796 22.9474214,152.620382 C26.375604,149.811452 29.5880099,146.746142 32.5572394,143.450598 C34.0373793,141.805726 35.4237287,140.077869 36.70963,138.275323 L37.2029215,137.609571 L37.6400152,136.912416 L38.5204469,135.511826 C38.8389009,135.053337 39.0512036,134.544602 39.350925,134.086113 C39.6392819,133.601009 39.9783973,133.148319 40.3624848,132.735768 L40.5248339,132.786013 Z" id="Path"></path>
                        <path d="M43.3222338,133.344993 C43.2679274,133.853294 43.1526106,134.353107 42.978803,134.833513 C42.818787,135.316602 42.6095343,135.781752 42.3543834,136.221542 L41.6550334,137.546764 L41.29287,138.206235 L40.8932415,138.834303 C39.8338272,140.534712 38.6810264,142.174417 37.4402009,143.74579 C34.9703715,146.888556 32.2559985,149.828803 29.3227458,152.538734 C26.4058738,155.253286 23.2917906,157.745251 20.0064049,159.993894 C16.6969809,162.185849 13.1814984,164.183104 9.34131764,165.238257 L9.31009666,165.125205 C13.1003238,163.96328 16.5221434,161.884377 19.7503929,159.623334 C22.9758241,157.343335 26.0273283,154.824049 28.8794078,152.086525 C31.7526951,149.3626 34.4162155,146.42317 36.8470023,143.293581 C38.0588355,141.736663 39.1844956,140.113791 40.2188683,138.43234 L40.6122526,137.804272 L40.9619276,137.176205 L41.6550334,135.876105 C41.9048013,135.449019 42.0609062,134.984249 42.2794531,134.557164 C42.5122237,134.107683 42.7950272,133.686267 43.1224196,133.301029 L43.3222338,133.344993 Z" id="Path"></path>
                        <path d="M38.5204469,131.26609 C38.4348718,131.770051 38.2880746,132.261531 38.0833532,132.729487 C37.8987834,133.200245 37.6665239,133.65064 37.3902474,134.073552 L36.5909902,135.329686 L36.1851175,135.957754 L35.7417795,136.585821 C34.5798848,138.213977 33.3291256,139.776076 31.9952618,141.264924 C29.325175,144.230125 26.4249783,146.97715 23.3220731,149.480045 C20.238852,152.00484 16.9700429,154.291257 13.5436617,156.3197 C10.1031096,158.291831 6.47523155,160.05042 2.56636467,160.854346 L2.56636467,160.741294 C6.41903378,159.830596 9.97198147,157.977798 13.3376033,155.930298 C16.701463,153.854927 19.9073214,151.530958 22.9286888,148.977591 C25.9716032,146.454609 28.81888,143.701979 31.4457725,140.743628 C32.7560862,139.270452 33.9839262,137.725113 35.1236041,136.114771 L35.5544537,135.486703 L35.9415938,134.858636 L36.7221184,133.602501 C37.0031072,133.194257 37.1841889,132.742049 37.4526893,132.346366 C37.7121161,131.912802 38.022386,131.512156 38.3768304,131.153038 L38.5204469,131.26609 Z" id="Path"></path>
                        <path d="M45.5826329,133.740676 C45.6091437,134.583925 45.4425,135.422011 45.0955856,136.190139 L44.6147825,137.339502 L44.377503,137.911044 L44.0965142,138.470024 C43.3666295,139.95025 42.5557212,141.388638 41.6675218,142.778566 C39.9029503,145.557376 37.9192378,148.189074 35.7355353,150.648251 C33.5719804,153.111511 31.2280111,155.40829 28.7233029,157.519308 C26.2329421,159.668699 23.4192948,161.407027 20.3873009,162.669461 L20.3498357,162.56269 C23.3012097,161.196598 26.0230062,159.376411 28.4173373,157.167591 C30.8644044,155.023427 33.1498183,152.69947 35.2547322,150.214884 C37.3770206,147.749722 39.3119365,145.127469 41.0431022,142.370322 C41.9076909,140.999255 42.6936601,139.5796 43.3971642,138.118306 L43.6656646,137.571887 L43.8966999,137.012907 L44.3587704,135.894947 C44.5878274,135.105676 44.9466233,134.360541 45.4202838,133.690431 L45.5826329,133.740676 Z" id="Path"></path>
                        <path d="M48.8358592,134.864917 C48.9200167,135.632981 48.8127193,136.410035 48.5236493,137.125959 L48.130265,138.187393 L47.9304507,138.721251 L47.6994154,139.236266 C47.0948443,140.610719 46.4152737,141.950543 45.6638074,143.249617 C44.1687383,145.842963 42.4712222,148.312755 40.5872759,150.635689 C38.7087879,152.960373 36.6613087,155.141574 34.4617193,157.16131 C32.2845888,159.213728 29.800315,160.909258 27.0998119,162.185849 L27.0498583,162.079078 C29.6748048,160.717829 32.0723183,158.95263 34.1557537,156.847276 C36.2891264,154.798195 38.2697203,152.59401 40.081496,150.252568 C41.9071262,147.927748 43.5580788,145.469392 45.0206552,142.897899 C45.7494548,141.617052 46.4061304,140.296028 46.9875771,138.941074 L47.2061239,138.43862 L47.3934498,137.923605 L47.7681016,136.887294 C47.9433873,136.156963 48.2502593,135.465128 48.6735101,134.846075 L48.8358592,134.864917 Z" id="Path"></path>
                        <path d="M35.9853032,129.042732 C35.9613607,129.812224 35.7467259,130.563516 35.3608836,131.228406 L34.8176385,132.220753 L34.5491381,132.716926 L34.2431724,133.194257 C33.4466046,134.467089 32.5793683,135.693764 31.6455868,136.868452 C29.7899351,139.214917 27.7520942,141.409573 25.5512512,143.431756 C23.355634,145.456084 21.0138921,147.31397 18.545263,148.990153 C16.0914008,150.693018 13.388476,152.000459 10.5339591,152.865329 L10.5027382,152.745996 C13.2973092,151.786891 15.9248157,150.392345 18.2892509,148.613312 C20.6984355,146.901903 22.9776204,145.01248 25.1079133,142.960706 C27.251934,140.930248 29.2411157,138.740493 31.0586323,136.409962 C31.9605631,135.251874 32.7945401,134.041834 33.5563108,132.786013 L33.8497881,132.321244 L34.1120443,131.837632 L34.6303126,130.864127 C34.9085298,130.168696 35.3105812,129.530169 35.8167099,128.979925 L35.9853032,129.042732 Z" id="Path"></path>
                        <path d="M61.6239731,105.653501 L58.6330031,109.478432 L55.1237648,106.85939 C55.0606909,107.917374 55.1725227,108.978555 55.4547072,109.999728 C56.2352318,113.00189 60.0816567,118.792671 61.7301245,118.340463 C63.5346972,117.869412 63.1163361,110.257235 62.4981606,107.88314 C62.3043857,107.104857 62.0105109,106.355321 61.6239731,105.653501 L61.6239731,105.653501 Z" id="Path"></path>
                        <path d="M46.6816114,114.389919 C48.2301721,116.676084 46.4255994,119.05646 44.2526191,120.544979 C42.2357437,121.926728 35.248488,124.878645 34.1994631,123.327318 C33.244101,121.907886 37.3590264,116.324366 39.9129027,114.578339 C42.1608133,113.052135 45.1330508,112.110034 46.6816114,114.389919 Z" id="Path"></path>
                        <path d="M52.6822841,116.575593 C49.9348377,116.776575 49.2479761,119.828983 49.4477904,122.561076 C49.6725815,125.657448 52.4137836,132.038613 54.1059608,131.913 C55.9792197,131.781106 56.9283375,124.219174 56.7535,121.769711 C56.55993,119.131828 55.4234862,116.374612 52.6822841,116.575593 Z" id="Path"></path>
                        <path d="M43.8155253,108.655663 L43.8155253,109.026223 L41.7486964,111.670387 C43.5379722,111.113428 45.2694451,110.383559 46.9188909,109.490993 C45.8534936,109.345597 44.8107232,109.064916 43.8155253,108.655663 Z" id="Path"></path>
                        <path d="M28.3673837,6.86477688 C29.3976761,7.92621081 30.346794,9.06929351 31.3146444,10.1872535 C31.7954475,10.7525142 32.2450296,11.3428976 32.7071001,11.9207196 C32.9818448,12.2661567 33.2565894,12.6053131 33.5250899,12.9507502 L34.1495095,12.1468239 L33.4813805,11.3052135 C33.0130658,10.7211108 32.5634836,10.1244468 32.0764363,9.55290542 C31.1023417,8.4161034 30.1469797,7.26045935 29.0979547,6.18018339 C27.0561025,3.99450878 24.845657,1.8716409 22.1544084,0.483611912 L22.0482571,0.628067418 C24.2212374,2.68184787 26.3255315,4.72306698 28.3673837,6.86477688 Z" id="Path"></path>
                        <path d="M52.6260863,107.763808 C51.8393176,110.156744 50.9588859,112.518278 49.9723029,114.829566 C47.5372249,120.277663 44.6242303,125.496615 41.2678933,130.42448 L41.3615562,130.493567 C44.7906223,125.597693 47.7748854,120.401478 50.2782685,114.967741 C51.377247,112.493155 52.3450975,109.943201 53.2067966,107.399528 L52.6260863,107.763808 Z" id="Path"></path>
                    </g>
                </g>
                <g id="gear" transform="translate(20.000000, 0.000000)">
                    <path d="M13.3390805,130.657436 L4.89310345,130.587863 C4.75402299,129.822564 4.62126437,129.05094 4.49482759,128.279316 L12.4097701,125.319316 L12.2201149,123.826667 C11.9798851,122.005128 11.7965517,120.215214 11.6701149,118.488547 L11.5563218,117.008547 L5.58850575,116.116752 L2.90172414,119.538462 L8.00977011,120.297436 C8.08563218,121.132308 8.17413793,121.973504 8.26896552,122.82735 L0.284482759,125.8 L0.505747126,127.317949 C0.777586207,129.171111 1.1,131.030598 1.46666667,132.845812 L1.77011494,134.357436 L10.1212644,134.427009 L13.6614943,132.124786 L13.3390805,130.657436 Z" id="Path"></path>
                    <path d="M12.2643678,80.2805128 L5.6454023,79.8694017 C9.03880967,80.4653853 12.3016888,81.6512724 15.2862069,83.3733333 L15.4568966,82.8041026 C15.9689655,81.0774359 16.5252874,79.3697436 17.1132184,77.7442735 L17.6189655,76.3211966 L10.487931,71.78 C10.7787356,71.0463248 11.0821839,70.3063248 11.3856322,69.5852991 L19.6672414,71.2740171 L20.2994253,69.9015385 C21.0074713,68.345641 21.7977011,66.7391453 22.6448276,65.12 L23.3528736,63.7791453 L16.9172414,58.2702564 C17.3091954,57.5555556 17.7011494,56.9230769 18.112069,56.2083761 L26.0775862,59.0355556 L26.8867816,57.7705983 C27.8224138,56.3095726 28.8275862,54.8295726 29.8706897,53.3432479 L30.7557471,52.1099145 L25.1545977,45.7851282 C25.6413793,45.1526496 26.1344828,44.5201709 26.633908,43.8876923 L34.137931,47.834359 L35.1178161,46.6832479 C36.3,45.3044444 37.4948276,43.9762393 38.6643678,42.7492308 L39.7074713,41.6487179 L35.0356322,34.6092308 C35.6109195,34.0463248 36.1862069,33.4897436 36.7678161,32.9394872 L43.6206897,37.8538462 L44.7522989,36.8545299 C46.0988506,35.6654701 47.4643678,34.514359 48.8045977,33.4517949 L49.9867816,32.5157265 L46.3454023,24.8817094 C46.9775862,24.4073504 47.6413793,23.9329915 48.2925287,23.4712821 L54.4183908,29.2964103 L55.6827586,28.4615385 C57.1304598,27.5001709 58.6350575,26.5641026 60.1649425,25.6533333 L61.4672414,24.8880342 L58.9385057,16.8239316 C59.6465517,16.4381197 60.3545977,16.0586325 61.0626437,15.6917949 L66.316092,22.3138462 L67.6816092,21.6813675 C69.2304598,20.9413675 70.8425287,20.2203419 72.5178161,19.5309402 L73.9149425,18.9553846 L72.5114943,10.6129915 C73.2637931,10.3283761 74.016092,10.0564103 74.7747126,9.79076923 L79.0672414,17.0769231 L80.5022989,16.6215385 C82.2091954,16.0839316 83.9224138,15.5905983 85.5597701,15.1605128 L87.0201149,14.7810256 L86.8304598,6.32478632 C87.6143678,6.15401709 88.3982759,5.98324786 89.1885057,5.82512821 L92.4189655,13.6488889 L93.9045977,13.4022222 C95.6241379,13.1112821 97.3816092,12.8646154 99.1327586,12.668547 L100.637356,12.5041026 L101.591954,4.10478632 C102.388506,4.03521368 103.197701,3.98461538 104.000575,3.93401709 L106.112069,12.1562393 L107.622989,12.1119658 C109.374138,12.0613675 111.144253,12.0613675 112.895402,12.1119658 L114.4,12.1562393 L116.517816,3.93401709 C117.32069,3.98461538 118.123563,4.03521368 118.926437,4.10478632 L119.881034,12.5041026 L121.37931,12.6495726 C123.13046,12.8519658 124.894253,13.0923077 126.601149,13.3832479 L128.093103,13.6299145 L131.323563,5.80615385 C132.107471,5.9642735 132.897701,6.13504274 133.681609,6.30581197 L133.460345,14.7494017 L134.92069,15.1288889 C136.602299,15.5589744 138.309195,16.0523077 139.978161,16.5899145 L141.41954,17.0452991 L145.705747,9.75282051 C146.458046,10.0184615 147.216667,10.2904274 147.968966,10.5750427 L146.565517,18.9174359 L147.962644,19.4929915 C149.631609,20.1823932 151.256322,20.9034188 152.798851,21.6434188 L154.158046,22.2758974 L159.417816,15.6538462 C160.125862,16.0206838 160.84023,16.4001709 161.541954,16.7859829 L159.013218,24.8500855 L160.315517,25.6153846 C161.83908,26.5641026 163.362644,27.5001709 164.810345,28.4615385 L166.074713,29.2964103 L172.206897,23.4712821 C172.83908,23.9329915 173.509195,24.4073504 174.154023,24.8817094 L170.506322,32.5094017 L171.688506,33.4517949 C173.047701,34.5333333 174.406897,35.6781197 175.740805,36.8545299 L176.866092,37.8538462 L183.750575,32.945812 C184.332184,33.4960684 184.907471,34.0526496 185.476437,34.6092308 L180.804598,41.6487179 L181.847701,42.7492308 C183.036207,44.014188 184.224713,45.317094 185.394253,46.6832479 L186.374138,47.834359 L193.871839,43.925641 C194.371264,44.5581197 194.864368,45.1905983 195.351149,45.8230769 L195.287931,45.8926496 L198.341379,48.1632479 L200.237931,46.0254701 L199.321264,44.7605128 C198.195977,43.2425641 197.020115,41.7435897 195.831609,40.3331624 L194.851724,39.1504274 L187.265517,43.0907692 C186.721839,42.4582906 186.165517,41.825812 185.609195,41.2502564 L190.350575,34.1538462 L189.26954,33.0596581 C187.948276,31.7251282 186.576437,30.4032479 185.191954,29.125641 L184.060345,28.0883761 L177.106322,33.0470085 C176.474138,32.5030769 175.841954,31.9781197 175.20977,31.4594872 L178.908046,23.7305983 L177.675287,22.7692308 C176.202299,21.637094 174.65977,20.5176068 173.091954,19.4360684 L171.827586,18.5695726 L165.632184,24.4705983 C164.943103,24.0278632 164.247701,23.591453 163.539655,23.1613675 L166.112644,15.0213675 L164.772414,14.2687179 C163.135057,13.3389744 161.453448,12.4408547 159.771839,11.5996581 L158.393678,10.9102564 L153.089655,17.5955556 C152.347893,17.2540171 151.595594,16.9188034 150.832759,16.5899145 L152.242529,8.17794872 L150.820115,7.58974359 C149.056322,6.89401709 147.267241,6.2425641 145.490805,5.64803419 L144.03046,5.16102564 L139.712644,12.5420513 C138.924521,12.3017094 138.134291,12.0740171 137.341954,11.8589744 L137.56954,3.33948718 L136.071264,2.97897436 C134.237931,2.5425641 132.372989,2.15042735 130.52069,1.80888889 L129.00977,1.5242735 L125.741379,9.41760684 C124.938506,9.2974359 124.122989,9.18358974 123.307471,9.08239316 L122.346552,0.632478632 L120.816667,0.455384615 C118.920115,0.278290598 117.023563,0.151794872 115.127011,0.0695726496 L113.616092,0 L111.485632,8.26017094 C110.670115,8.26017094 109.848276,8.26017094 109.032759,8.26017094 L106.902299,0 L105.366092,0.0695726496 C103.46954,0.151794872 101.572989,0.278290598 99.6764368,0.455384615 L98.1718391,0.632478632 L97.2045977,9.11401709 C96.3954023,9.21521368 95.5798851,9.32905983 94.7770115,9.44923077 L91.5149425,1.5242735 L90.004023,1.80888889 C88.1517241,2.15042735 86.2867816,2.5425641 84.4534483,2.97897436 L82.9551724,3.33948718 L83.1827586,11.8589744 C82.394636,12.0740171 81.6044061,12.3017094 80.812069,12.5420513 L76.4942529,5.18632479 L75.0275862,5.69230769 C73.2448276,6.28683761 71.4557471,6.95726496 69.6982759,7.63401709 L68.2695402,8.19692308 L69.6793103,16.6088889 C68.9122605,16.9377778 68.1599617,17.2729915 67.4224138,17.6145299 L62.1183908,10.9292308 L60.7465517,11.6186325 C59.0712644,12.4535043 57.3833333,13.3516239 55.7396552,14.2876923 L54.3994253,15.0403419 L56.966092,23.1803419 C56.2643678,23.6104274 55.5626437,24.0468376 54.8798851,24.4895726 L48.6781609,18.5948718 L47.4137931,19.4613675 C45.8649425,20.5302564 44.3224138,21.6497436 42.8241379,22.7945299 L41.604023,23.7305983 L45.2833333,31.434188 C44.6511494,31.9464957 44.0189655,32.4777778 43.3867816,33.0217094 L36.4327586,28.0630769 L35.3327586,29.0940171 C33.9482759,30.3589744 32.5764368,31.6808547 31.2488506,33.0280342 L30.1678161,34.1538462 L34.8775862,41.2376068 C34.3212644,41.8321368 33.7712644,42.445641 33.2149425,43.0781197 L25.6287356,39.1377778 L24.6551724,40.314188 C23.4793103,41.737265 22.3034483,43.2362393 21.1655172,44.7731624 L20.2425287,46.0381197 L25.9195402,52.3945299 C25.4454023,53.0776068 24.9775862,53.7670085 24.5224138,54.4564103 L16.4747126,51.6039316 L15.6718391,52.9131624 C14.6856322,54.5196581 13.7310345,56.1577778 12.8396552,57.7958974 L12.1,59.1494017 L18.5862069,64.6835897 C18.2068966,65.4425641 17.833908,66.1952137 17.4798851,66.9352137 L9.12241379,65.2275214 L8.49022989,66.6379487 C7.75057471,68.3329915 7.0362069,70.0912821 6.37241379,71.8622222 L5.82873563,73.3042735 L13.0229885,77.8834188 C12.7764368,78.6740171 12.5109195,79.4709402 12.2643678,80.2805128 Z" id="Path"></path>
                    <path d="M219.31092,127.317949 L217.256322,129.930085 L215.90977,128.930769 C215.814943,129.48735 215.726437,130.037607 215.625287,130.587863 L212.824713,130.587863 L207.17931,137.747521 L205.737931,136.678632 L205.567241,137.311111 L205.162644,138.765812 L212.597126,142.801026 C212.361111,143.54735 212.120881,144.28735 211.876437,145.021026 L203.5,143.914188 L202.975287,145.337265 C202.381034,146.943761 201.71092,148.626154 200.958621,150.333846 L200.358046,151.718974 L207.154023,156.747179 C206.825287,157.449231 206.483908,158.144957 206.136207,158.840684 L198,156.582735 L197.27931,157.91094 C196.425862,159.485812 195.515517,161.073333 194.579885,162.584957 L193.789655,163.849915 L199.82069,169.776239 C199.390805,170.408718 198.96092,171.041197 198.518391,171.673675 L190.767816,168.302564 L189.870115,169.516923 C188.763793,171.022222 187.651149,172.451624 186.557471,173.779829 L185.596552,174.949915 L190.736207,181.647863 C190.23046,182.229744 189.712069,182.805299 189.187356,183.37453 L181.98046,178.947179 L180.924713,180.028718 C179.660345,181.293675 178.364368,182.558632 177.043103,183.791966 L175.93046,184.816581 L180.096552,192.273504 C179.514943,192.779487 178.92069,193.272821 178.320115,193.766154 L171.802299,188.390085 L170.607471,189.313504 C169.191379,190.407692 167.718391,191.482906 166.232759,192.507521 L164.968391,193.361368 L168.066092,201.229402 C167.433908,201.646838 166.763793,202.057949 166.112644,202.45641 L160.422989,196.226496 L159.101724,196.972821 C157.578161,197.845641 155.940805,198.705812 154.316092,199.502735 L152.988506,200.198462 L154.967241,208.420684 C154.259195,208.743248 153.557471,209.053162 152.862069,209.356752 L148.082759,202.399487 L146.67931,202.956068 C145.016667,203.588547 143.297126,204.221026 141.571264,204.815556 L140.136207,205.296239 L140.951724,213.708205 C140.218391,213.929573 139.478736,214.138291 138.745402,214.340684 L134.952299,206.75094 L133.485632,207.105128 C131.696552,207.541538 129.907471,207.921026 128.175287,208.237265 L126.683333,208.509231 L126.322989,216.952821 C125.564368,217.066667 124.805747,217.174188 124.040805,217.26906 L121.37931,209.27453 L119.881034,209.413675 C118.136207,209.584444 116.315517,209.71094 114.463218,209.786838 L112.958621,209.850085 L111.416092,218.167179 L109.108621,218.167179 L107.572414,209.850085 L106.061494,209.786838 C104.215517,209.71094 102.394828,209.584444 100.65,209.413675 L99.1454023,209.27453 L96.4712644,217.288034 C95.7063218,217.193162 94.9413793,217.085641 94.1890805,216.971795 L93.8224138,208.528205 L92.3367816,208.256239 C90.6045977,207.94 88.8155172,207.560513 87.0264368,207.124103 L85.5534483,206.769915 L81.7603448,214.359658 C81.0206897,214.15094 80.2873563,213.942222 79.554023,213.727179 L80.3632184,205.315214 L78.9344828,204.83453 C77.1896552,204.25265 75.4764368,203.626496 73.8264368,202.975043 L72.4229885,202.418462 L67.6436782,209.350427 C66.941954,209.046838 66.2402299,208.717949 65.5385057,208.414359 L67.5172414,200.192137 L66.1643678,199.521709 C64.5270115,198.705812 62.9149425,197.845641 61.3787356,196.991795 L60.0574713,196.226496 L54.3678161,202.45641 C53.7356322,202.057949 53.0591954,201.646838 52.408046,201.229402 L55.512069,193.361368 L54.2477011,192.507521 C52.7747126,191.495556 51.3017241,190.420342 49.8729885,189.313504 L48.6718391,188.390085 L42.154023,193.766154 C41.5597701,193.279145 40.9655172,192.779487 40.383908,192.279829 L44.55,184.924103 L43.4373563,183.899487 C42.0908046,182.666154 40.7885057,181.401197 39.5557471,180.142564 L38.4873563,179.042051 L31.3310345,183.53265 L29.7505747,181.73641 L34.883908,175.051111 L33.9229885,173.881026 C32.8166667,172.546496 31.704023,171.110769 30.604023,169.61812 L29.7063218,168.403761 L21.9557471,171.774872 C21.5258621,171.142393 21.0896552,170.509915 20.6597701,169.877436 L26.6908046,163.957436 L25.9005747,162.692479 C24.9396552,161.130256 24.004023,159.530085 23.2011494,158.018462 L22.4804598,156.683932 L14.3442529,158.948205 C13.9965517,158.258803 13.6551724,157.556752 13.3201149,156.854701 L20.1603448,151.794872 L19.5281609,150.409744 C19.4206897,150.169402 19.3258621,149.935385 19.2247126,149.695043 L8.88218391,156.15265 L9.26149425,156.981197 C10.0390805,158.676239 10.8609195,160.371282 11.7143678,162.009402 L12.4224138,163.375556 L20.6408046,161.092308 C21.0517241,161.832308 21.487931,162.578632 21.9051724,163.324957 L15.8172414,169.30188 L16.6454023,170.598462 C17.6695402,172.198632 18.7189655,173.760855 19.7683908,175.23453 L20.6597701,176.499487 L28.4798851,173.090427 C29.0045977,173.786154 29.5356322,174.469231 30.0603448,175.127009 L24.8764368,181.900855 L30.6545977,188.478632 L37.9310345,183.880513 C38.5632184,184.475043 39.1511494,185.075897 39.7770115,185.664103 L35.5793103,193.089402 L36.7235632,194.107692 C38.1017241,195.328376 39.5367816,196.53641 40.9908046,197.700171 L42.1982759,198.661538 L48.7729885,193.234872 C49.4683908,193.753504 50.1637931,194.265812 50.8655172,194.76547 L47.7045977,202.703077 L48.9689655,203.550598 C50.5114943,204.581538 52.1298851,205.580855 53.6850575,206.516923 L55.0126437,207.301197 L60.7718391,201.014359 C61.5241379,201.42547 62.2954023,201.836581 63.0666667,202.241368 L61.0752874,210.539487 L62.4597701,211.20359 C64.1477011,212.006838 65.8609195,212.772137 67.5172414,213.467863 L68.9396552,214.062393 L73.7632184,207.029231 C74.566092,207.339145 75.387931,207.661709 76.216092,207.92735 L75.4005747,216.421538 L76.8672414,216.883248 C78.6183908,217.433504 80.4201149,217.945812 82.2091954,218.413846 L83.6948276,218.799658 L87.487931,211.159316 C88.3477011,211.355385 89.2011494,211.532479 90.0166667,211.703248 L90.3896552,220.22906 L91.9068966,220.475726 C93.7086207,220.772991 95.5609195,221.032308 97.4195402,221.24735 L98.9431034,221.41812 L101.781609,213.328718 C102.635057,213.398291 103.501149,213.455214 104.379885,213.505812 L105.928736,221.892479 L107.464943,221.930427 C108.392146,221.955726 109.321456,221.968376 110.252874,221.968376 C111.182184,221.968376 112.111494,221.968376 113.034483,221.930427 L114.57069,221.892479 L116.125862,213.505812 C116.998276,213.455214 117.87069,213.398291 118.724138,213.328718 L121.423563,221.41812 L122.953448,221.24735 C124.812069,221.032308 126.664368,220.772991 128.466092,220.475726 L129.983333,220.22906 L130.35,211.703248 C131.197126,211.532479 132.050575,211.355385 132.910345,211.159316 L136.703448,218.799658 L138.195402,218.413846 C139.978161,217.952137 141.779885,217.433504 143.537356,216.883248 L145.010345,216.421538 L144.182184,207.92735 C145.010345,207.63641 145.832184,207.339145 146.641379,207.029231 L151.464943,214.062393 L152.887356,213.467863 C154.543678,212.778462 156.256897,212.013162 157.944828,211.20359 L159.335632,210.539487 L157.337931,202.241368 C158.121839,201.836581 158.886782,201.42547 159.63908,201.014359 L165.398276,207.307521 L166.725862,206.516923 C168.3,205.580855 169.886782,204.619487 171.441954,203.550598 L172.706322,202.703077 L169.577011,194.76547 C170.285057,194.265812 170.986782,193.753504 171.675862,193.234872 L178.275862,198.661538 L179.477011,197.700171 C180.937356,196.53641 182.372414,195.328376 183.750575,194.107692 L184.901149,193.089402 L180.697126,185.664103 C181.32931,185.075897 181.961494,184.475043 182.549425,183.867863 L189.81954,188.326838 L190.91954,187.213675 C192.183908,185.866496 193.448276,184.468718 194.655747,183.058291 L195.648276,181.888205 L190.458046,175.127009 C190.98908,174.49453 191.513793,173.786154 192.044828,173.090427 L199.864943,176.499487 L200.756322,175.23453 C201.831034,173.729231 202.88046,172.167009 203.87931,170.598462 L204.707471,169.30188 L198.61954,163.324957 C199.055747,162.584957 199.485632,161.844957 199.883908,161.092308 L208.102299,163.375556 L208.810345,162.009402 C209.676437,160.345983 210.498276,158.65094 211.256897,156.981197 L211.88908,155.583419 L205.029885,150.52359 C205.364943,149.720342 205.662069,148.923419 205.990805,148.139145 L214.443103,149.264957 L214.955172,147.816581 C215.587356,146.08359 216.143678,144.28735 216.681034,142.484786 L217.11092,141.011111 L209.613218,136.937949 C209.828161,136.115726 210.03046,135.287179 210.245402,134.452308 L218.767241,134.382735 L219.07069,132.871111 C219.405747,131.176068 219.702874,129.474701 219.955747,127.811282 L219.31092,127.317949 Z" id="Path"></path>
                </g>
                <g id="text" transform="translate(0.000000, 38.000000)">
                    <polygon id="Path" points="49.6162588 74.4534 51.9454824 76.23 51.9454824 97.6878 55.5659059 100.2456 58.9331529 95.9994 58.9331529 69.8166 55.3127294 67.1832"></polygon>
                    <polygon id="Path" points="78.1619059 66.8367 80.4911294 68.6196 80.4911294 88.0173 84.1178824 90.5688 87.4788 86.3289 87.4788 62.2062 83.8583765 59.5665"></polygon>
                    <polygon id="Path" points="207.522424 32.3379 209.851647 34.1208 209.851647 55.5786 213.472071 58.1301 216.832988 53.8839 216.832988 27.7074 213.212565 25.0677"></polygon>
                    <path d="M128.107294,97.4547 C128.107294,96.5286 127.379412,96.0498 126.550259,95.697 L123.790635,99.351 L123.790635,104.4666 L128.107294,99.5778 L128.107294,97.4547 Z" id="Path"></path>
                    <path d="M126.702165,103.068 C126.702165,103.068 123.790635,106.3125 123.790635,106.3125 L123.790635,108.5364 C123.790635,110.1807 126.904706,110.376 126.904706,110.376 L128.759224,109.1601 L128.759224,105.1155 C128.759224,104.1957 127.556635,103.4145 126.702165,103.068 Z" id="Path"></path>
                    <polygon id="Path" points="143.120659 98.0154 143.797906 98.532 143.797906 100.7811 145.829647 98.217 145.829647 96.6672 144.778965 95.9049"></polygon>
                    <polygon id="Path" points="180.824965 87.9606 181.502212 88.4772 181.502212 94.1157 182.559224 94.8591 183.533953 93.6243 183.533953 86.6124 182.483271 85.8438"></polygon>
                    <polygon id="Path" points="205.895765 81.2763 206.573012 81.7929 206.573012 88.0299 207.623694 88.7733 208.604753 87.5385 208.604753 79.9281 207.547741 79.1595"></polygon>
                    <polygon id="Path" points="232.966659 73.4265 231.915976 72.6642 230.941247 73.8927 230.941247 81.5283 231.991929 82.2717 233.650235 80.1864 232.966659 79.6698"></polygon>
                    <polygon id="Path" points="238.6568 72.5319 239.340376 73.0548 239.340376 79.2918 240.391059 80.0352 241.372118 78.8004 241.372118 71.19 240.315106 70.4214"></polygon>
                    <path d="M258.834965,59.535 L258.429882,59.2389 L268.518965,46.5066 L262.822494,42.3675 L262.822494,10.521 L249.011718,0.441 L239.391012,12.6882 L235.004729,9.4122 L228.422141,17.7219 L216.7064,9.0657 L198.743529,31.8024 L198.743529,25.6347 L192.2812,20.9223 L200.642353,10.4643 L186.9012,0.4473 L175.001906,15.6492 L183.261788,21.672 L175.033553,32.067 L175.198118,32.1867 L171.185271,33.2577 L159.115082,24.4377 L149.120941,36.9369 L144.601741,33.642 L152.975553,23.184 L139.247059,13.167 L127.309788,28.35 L135.569671,34.3728 L129.676988,41.8068 L120.094259,34.8264 L110.467224,47.0547 L106.080941,43.7724 L99.2768235,52.3593 L87.3458824,43.5393 L72.5034118,62.37 L72.5034118,61.299 L58.8002353,51.1749 L38.3752235,77.0616 L38.3752235,94.8276 L24.1213882,104.0445 C21.6972235,103.6728 19.4566118,102.8286 18.9502588,102.1545 L18.9502588,70.5033 L18.7603765,70.3647 L24.2416471,63.4032 C24.5222073,63.5973238 24.7557355,63.8512894 24.9252235,64.1466 L24.9252235,79.1658 L43.8564941,55.0935 L42.6539059,52.6176 C38.8562588,44.7615 27.3620471,43.4448 26.0708471,43.3251 L23.6530118,43.092 L0,73.1367 L0,108.5616 C0,118.6416 11.1207765,122.4216 17.7223529,123.1083 L19.2287529,123.2658 L42.2171765,108.99 L52.0784,116.2728 L67.4145647,96.8436 L76.2757412,103.3956 L67.2943059,114.849 L82.1620941,125.8425 L101.0364,101.9025 L101.0364,92.7549 L111.511576,100.3842 L112.233129,99.4644 L116.461176,101.43 L116.461176,110.3886 C116.458347,112.592898 117.55675,114.654345 119.391694,115.8885 L119.391694,116.2098 L119.575247,116.0082 C121.036687,116.973632 122.715254,117.56446 124.461553,117.7281 L125.967953,117.8793 L132.639153,113.7276 L136.563388,116.6382 L139.398965,113.0157 L139.398965,113.526 L140.766118,111.7998 L144.449835,114.5214 L149.2412,108.4419 L154.051553,111.9447 L156.336471,108.99 L158.665694,110.7099 L163.096282,105.084 L167.495224,108.3537 L169.951035,105.2541 L172.400518,107.037 L174.710753,104.0949 L177.020988,105.8085 L177.255176,105.5124 L182.571882,109.4499 L190.622894,99.2439 L190.622894,96.1821 C192.223856,97.5279367 194.201077,98.3525315 196.287718,98.5446 L197.800447,98.7021 L203.591859,95.1048 L207.193294,97.7634 L211.680847,92.0934 L216.149412,95.4072 L219.744518,90.8145 L220.320494,91.224 L221.054706,90.2979 L229.865247,96.8436 L235.397153,89.8695 L235.397153,86.4171 L235.770588,85.9446 L239.948,89.0379 L242.017718,86.4297 L244.074776,87.9606 L246.606541,84.7224 L249.138306,86.5746 L251.442212,83.6325 L253.758776,85.3524 L254.170188,84.8295 L259.695765,88.8615 L267.734118,78.7185 L267.734118,61.3368 L261.107224,56.637 L258.834965,59.535 Z M39.4448941,105.4872 L18.1400941,118.7172 C18.1400941,118.7172 4.43058824,117.3186 4.43058824,108.5616 L4.43058824,74.655 L25.6467765,47.7099 C25.6467765,47.7099 35.8181412,48.6864 38.6663765,54.5391 L29.3558118,66.3768 L29.3558118,64.1466 C29.3558118,60.9966 25.9885647,58.9491 23.0264,57.7584 L12.4499529,71.2278 L14.5196706,72.7398 L14.5196706,102.2679 C14.5196706,107.9379 25.2100471,108.5679 25.2100471,108.5679 L39.4448941,99.3636 L39.4448941,105.4872 Z M68.0728235,88.83 L51.2682353,110.1492 L42.8184706,103.9059 L42.8184706,78.5862 L59.6230588,57.2733 L68.0728235,63.5229 L68.0728235,88.83 Z M96.6184706,100.359 L81.3519294,119.7 L73.5920706,113.9607 L80.0607294,105.7077 L85.6685882,109.7964 L87.4788,107.5914 L87.4788,90.7704 L79.8012235,100.4598 L71.3514588,94.2165 L71.3514588,70.9695 L88.1687059,49.6629 L96.6184706,55.9062 L96.6184706,100.359 Z M235.808565,15.5232 L240.201176,18.8118 L249.859859,6.5394 L258.398235,12.7575 L258.398235,44.604 L262.195882,47.3697 L255.638612,55.6416 L249.169953,50.841 L249.169953,19.0827 L245.638141,16.4178 L242.270894,20.664 L242.270894,48.9069 L246.068541,51.6663 L239.599882,59.9193 L233.048941,55.1439 L233.048941,26.5608 L229.251294,23.7951 L235.808565,15.5232 Z M253.967647,59.9004 L253.176471,60.8706 L250.435835,58.8672 L247.657224,62.3952 L246.391341,61.4439 L244.302635,64.0836 L242.821553,63 L248.4484,55.8306 L253.967647,59.9004 Z M200.705647,36.4707 L217.522894,15.1641 L225.96,21.42 L225.96,46.7397 L209.161741,68.04 L200.705647,61.7967 L200.705647,36.4707 Z M181.306,14.7798 L187.774659,6.5331 L194.312941,11.34 L187.762,19.53 L181.306,14.7798 Z M133.613882,27.4995 L140.082541,19.2528 L146.633482,24.0282 L140.082541,32.2182 L133.613882,27.4995 Z M140.082541,35.8155 L146.633482,40.5909 L146.633482,74.4093 L150.431129,77.175 L143.880188,85.4469 L137.411529,80.64 L137.411529,46.8279 L133.613882,43.9803 L140.082541,35.8155 Z M116.714353,50.8032 L113.347106,55.0494 L113.347106,83.2923 L117.144753,86.0517 L110.676094,94.3047 L104.118824,89.5293 L104.118824,60.9462 L100.321176,58.1805 L106.872118,49.9086 L111.271059,53.1972 L120.936071,40.95 L129.474447,47.1681 L129.474447,79.0146 L133.272094,81.7803 L126.714824,90.027 L120.258824,85.2264 L120.258824,53.4681 L116.714353,50.8032 Z M131.689741,109.0719 L124.872965,113.3118 C124.872965,113.3118 120.860118,112.9149 120.860118,110.3634 L120.860118,99.6534 C120.860118,98.8533 120.132235,98.2737 119.379035,97.9272 L121.739906,94.9536 C122.628847,95.3406233 123.316504,96.0775606 123.638729,96.9885 L127.018635,92.6919 C127.018635,92.6919 131.031482,93.0951 131.031482,95.6151 L131.031482,98.2611 L129.025059,100.6425 C130.177012,100.9827 131.683412,101.7324 131.683412,103.2822 L131.689741,109.0719 Z M140.588894,98.1666 L137.905224,101.2788 L137.905224,98.7588 L136.854541,97.9902 L136.253247,98.7714 L136.506424,98.9541 L136.506424,107.2449 L137.607741,108.045 L135.708918,110.4768 L133.810094,109.0782 L133.810094,100.8 L132.708776,99.9999 L134.6076,97.5996 L135.607647,98.3304 L138.139412,95.1804 L140.620541,96.9885 L140.588894,98.1666 Z M137.278612,89.0631 L134.746847,92.2131 L134.278471,91.8729 C133.748277,91.1333707 133.090352,90.4934353 132.335341,89.9829 L136.132988,85.1886 L142.715576,90.09 L141.240824,91.98 L137.278612,89.0631 Z M148.488,96.138 L143.797906,102.06 L143.797906,104.7816 L144.848588,105.5187 L145.829647,104.2587 L145.829647,102.3687 L148.488,99.0108 L148.488,102.2049 L143.595365,108.4041 L141.145882,106.5771 L141.145882,99.2187 L146.038518,93.0258 L148.494329,94.8402 L148.488,96.138 Z M147.937341,88.9371 L147.190471,88.389 L154.671835,78.939 L160.058165,82.8639 L157.399812,86.247 L157.399812,86.247 L156.431412,87.507 L155.836447,87.0723 L154.735129,88.4772 L152.8996,87.1101 L152.8996,86.31 L152.481859,86.8392 L150.665318,85.491 L147.937341,88.9371 Z M162.722847,98.3871 L157.836541,104.58 L155.507318,102.8538 L153.171765,105.84 L150.690635,104.0319 L150.690635,94.7709 L149.589318,93.9708 L151.488141,91.5642 L153.386965,92.9628 L153.386965,102.1923 L154.443976,102.9609 L155.393388,101.7009 L155.393388,94.8717 L156.722565,93.1707 L158.077059,94.1535 L158.077059,100.9701 L159.102424,101.7198 L160.083482,100.4598 L160.083482,92.2698 L158.975835,91.4697 L160.874659,89.0694 L162.773482,90.468 L162.722847,98.3871 Z M155.260471,73.9116 L155.260471,40.1814 L153.361647,38.7135 L159.918918,30.5235 L166.387576,35.2359 L164.488753,37.7118 L164.488753,39.6018 L180.616094,35.28 L172.337224,45.7317 L164.488753,47.88 L164.488753,67.6242 L168.109176,70.2639 L171.387812,66.0366 L171.387812,61.11 L180.616094,49.5495 L180.616094,58.8231 L163.798847,80.136 L155.260471,73.9116 Z M174.881647,49.6377 L168.913012,57.1158 L168.913012,51.2316 L174.881647,49.6377 Z M167.482565,84.3822 L165.583741,86.7573 L163.684918,85.3902 L165.583741,82.9899 L167.482565,84.3822 Z M166.678729,102.2364 L164.779906,100.8441 L164.779906,91.0098 L163.678588,90.1782 L165.577412,87.8094 L167.476235,89.1954 L167.476235,99.0297 L168.577553,99.8298 L166.678729,102.2364 Z M176.172847,99.7164 L174.274024,98.3178 L174.274024,89.0694 L173.248659,88.2945 L172.2676,89.5545 L172.2676,97.7445 L173.375247,98.5509 L171.476424,100.9449 L169.5776,99.5589 L169.5776,91.2429 L168.469953,90.4365 L170.368776,88.0299 L171.634659,88.9875 L174.444918,85.4217 L176.926047,87.2298 L176.926047,96.4908 L178.027365,97.2909 L176.172847,99.7164 Z M186.154329,97.7256 L181.723741,103.3515 L179.464141,101.682 L181.362965,99.288 L182.995953,100.4724 L183.521294,99.8424 L183.521294,94.9473 L181.287012,97.7634 L178.8312,95.949 L178.8312,89.1639 L183.723835,82.9647 L186.179647,84.7854 L186.154329,97.7256 Z M188.293671,79.8336 L188.293671,80.892 L182.92,76.86 L178.312188,82.7001 L173.698047,79.3359 L171.647318,81.9378 L169.343412,80.2494 L180.673059,65.8917 L180.673059,70.1379 L190.319082,77.2884 L188.293671,79.8336 Z M185.059341,67.9518 L185.059341,34.1082 L181.261694,31.2606 L187.730353,23.0706 L194.312941,27.8712 L194.312941,61.6896 L198.110588,64.4553 L191.553318,72.7272 L185.059341,67.9518 Z M202.895624,90.3168 L196.705459,94.1661 C196.705459,94.1661 192.724259,93.7566 192.724259,91.2114 L192.724259,81.333 L198.889106,73.5021 C198.889106,73.5021 201.844941,73.7856 202.686753,75.4866 L200.009412,78.9264 L200.009412,78.2964 C200.009412,77.3766 199.034682,76.7844 198.180212,76.4379 L195.097788,80.3565 L195.699082,80.7912 L195.699082,89.3781 C195.699082,91.0287 198.806824,91.2177 198.806824,91.2177 L202.939929,88.5465 L202.895624,90.3168 Z M200.009412,69.1992 L201.224659,67.662 L206.750235,71.7444 L206.117294,72.576 C204.364047,70.1946 201.420871,69.4323 200.009412,69.1992 Z M211.256776,85.4595 L206.370471,91.6524 L203.914659,89.838 L203.914659,82.4733 L208.800965,76.2804 L211.256776,78.0948 L211.256776,85.4595 Z M224.694118,86.7636 L222.795294,85.3713 L222.795294,76.1355 L221.744612,75.3669 L220.769882,76.6269 L220.769882,83.4939 L219.440706,85.1697 L218.086212,84.2058 L218.086212,77.3955 L217.098824,76.6206 L216.124094,77.8806 L216.124094,86.0706 L217.225412,86.877 L215.326588,89.271 L213.427765,87.8787 L213.427765,79.5627 L212.339106,78.75 L214.237929,76.3497 L215.503812,77.3073 L218.333059,73.7352 L220.668612,75.4614 L223.023153,72.4815 L225.478965,74.3022 L225.478965,83.5569 L226.580282,84.3633 L224.694118,86.7636 Z M235.625012,78.9579 L230.966565,84.8673 L230.966565,88.3134 L229.067741,90.72 L227.168918,89.3214 L228.270235,87.9291 L228.270235,74.0691 L227.168918,73.2375 L229.067741,70.8687 L230.966565,72.2295 L230.966565,72.576 L233.1692,69.7662 L235.625012,71.5869 L235.625012,78.9579 Z M232.340047,63.6741 L230.270329,66.3138 L228.200612,64.8333 L225.2068,68.6133 L222.200329,66.3894 L219.845788,69.363 L217.516565,67.6368 L214.699976,71.19 L213.434094,70.2198 L211.471976,72.7398 L211.244118,72.576 L228.65,50.526 L228.65,57.3867 L238.384635,64.4805 L236.536447,66.78 L232.340047,63.6741 Z M243.251953,81.8181 L241.353129,80.4258 L241.353129,80.0982 L239.125176,82.9143 L236.669365,81.0999 L236.669365,73.71 L241.555671,67.5171 L244.011482,69.3315 L244.011482,78.5925 L245.1128,79.3926 L243.251953,81.8181 Z M252.973929,79.2225 L251.075106,77.8302 L251.075106,68.5944 L250.049741,67.8195 L249.068682,69.0795 L249.068682,77.2695 L250.176329,78.0759 L248.277506,80.4762 L246.378682,79.0839 L246.378682,70.7679 L245.271035,69.9615 L247.169859,67.5612 L248.435741,68.5188 L251.246,64.9467 L253.809412,66.78 L253.809412,76.041 L254.910729,76.8411 L252.973929,79.2225 Z M263.303529,63.63 L263.303529,77.1813 L258.872941,82.782 L256.619671,81.1377 L258.518494,78.7374 L260.151482,79.9281 L260.651506,79.2666 L260.651506,74.403 L258.448871,77.1876 L255.993059,75.3984 L255.993059,66.6918 L254.885412,65.8602 L256.784235,63.4914 L258.683059,64.8585 L258.683059,73.5462 L259.695765,74.34 L260.645176,73.1367 L260.645176,64.3734 L261.999671,62.6661 L263.303529,63.63 Z" id="Shape"></path>
                </g>
            </g>
        </g>
    </g>
</svg>