<?xml version="1.0" encoding="UTF-8"?>
<svg width="20px" height="20px" viewBox="0 0 20 20" version="1.1" xmlns="http://www.w3.org/2000/svg" xmlns:xlink="http://www.w3.org/1999/xlink">
    <!-- Generator: Sketch 63.1 (92452) - https://sketch.com -->
    <title>icon-pinterest</title>
    <desc>Created with Sketch.</desc>
    <g id="Working-Concept" stroke="none" stroke-width="1" fill="none" fill-rule="evenodd">
        <g id="Desktop-HD" transform="translate(-45.000000, -602.000000)" fill="#FFFFFF">
            <path d="M62.5564844,602 C63.9051172,602 65,603.094922 65,604.443516 L65,619.556484 C65,620.905078 63.9050781,622 62.5564844,622 L52.391875,622 C52.8151953,621.286094 53.3528906,620.275625 53.5674219,619.450625 C53.6975391,618.949766 54.2343359,616.905977 54.2343359,616.905977 C54.5833203,617.571602 55.6030859,618.135078 56.6877344,618.135078 C59.9163281,618.135078 62.2423828,615.166133 62.2423828,611.476953 C62.2423828,607.940703 59.3566016,605.294727 55.6432813,605.294727 C51.0237891,605.294727 48.5705078,608.395664 48.5705078,611.772344 C48.5705078,613.342344 49.4063281,615.296875 50.7432813,615.919258 C50.9460938,616.013594 51.0545703,615.972031 51.10125,615.776055 C51.1367578,615.627266 51.3172656,614.900234 51.3985938,614.562109 C51.4245703,614.454023 51.4117187,614.361055 51.3243359,614.255078 C50.8820312,613.718789 50.5276953,612.732305 50.5276953,611.812266 C50.5276953,609.451406 52.3154688,607.166914 55.36125,607.166914 C57.9908203,607.166914 59.8325391,608.958906 59.8325391,611.521797 C59.8325391,614.417539 58.3701172,616.423633 56.4674609,616.423633 C55.4166797,616.423633 54.6301953,615.554766 54.8823437,614.489258 C55.1841797,613.216797 55.7689063,611.843711 55.7689063,610.925234 C55.7689063,610.103086 55.3276953,609.417383 54.4144922,609.417383 C53.3402734,609.417383 52.4775781,610.528633 52.4775781,612.017031 C52.4775781,612.965078 52.7978125,613.606289 52.7978125,613.606289 C52.7978125,613.606289 51.7370703,618.09168 51.5426563,618.927031 C51.3274219,619.851211 51.4117187,621.152891 51.5053125,622 L51.5057422,622 L47.4435156,622 C46.0949219,622 45,620.905078 45,619.556484 L45,604.443516 C45,603.094922 46.0948828,602 47.4435156,602 L62.5564844,602 Z" id="icon-pinterest" transform="translate(55.000000, 612.000000) rotate(-360.000000) translate(-55.000000, -612.000000) "></path>
        </g>
    </g>
</svg>