<?xml version="1.0" encoding="UTF-8"?>
<svg width="20px" height="20px" viewBox="0 0 20 20" version="1.1" xmlns="http://www.w3.org/2000/svg" xmlns:xlink="http://www.w3.org/1999/xlink">
    <!-- Generator: Sketch 63.1 (92452) - https://sketch.com -->
    <title>icon-twitter</title>
    <desc>Created with Sketch.</desc>
    <g id="Working-Concept" stroke="none" stroke-width="1" fill="none" fill-rule="evenodd">
        <g id="Desktop-HD" transform="translate(-45.000000, -638.000000)" fill="#FFFFFF" fill-rule="nonzero">
            <path d="M62.8571429,638 L47.1428571,638 C45.9598214,638 45,638.959821 45,640.142857 L45,655.857143 C45,657.040179 45.9598214,658 47.1428571,658 L62.8571429,658 C64.0401786,658 65,657.040179 65,655.857143 L65,640.142857 C65,638.959821 64.0401786,638 62.8571429,638 Z M60.6741071,645.089286 C60.6830357,645.214286 60.6830357,645.34375 60.6830357,645.46875 C60.6830357,649.339286 57.7366071,653.799107 52.3526786,653.799107 C50.6919643,653.799107 49.1517857,653.316964 47.8571429,652.486607 C48.09375,652.513393 48.3214286,652.522321 48.5625,652.522321 C49.9330357,652.522321 51.1919643,652.058036 52.1964286,651.272321 C50.9107143,651.245536 49.8303571,650.401786 49.4598214,649.241071 C49.9107143,649.308036 50.3169643,649.308036 50.78125,649.1875 C49.4419643,648.915179 48.4375,647.736607 48.4375,646.3125 L48.4375,646.276786 C48.8258929,646.495536 49.28125,646.629464 49.7589286,646.647321 C48.9432358,646.104749 48.4537533,645.189483 48.4553571,644.209821 C48.4553571,643.665179 48.5982143,643.165179 48.8526786,642.732143 C50.2946429,644.508929 52.4598214,645.669643 54.8883929,645.794643 C54.4732143,643.808036 55.9598214,642.196429 57.7455357,642.196429 C58.5892857,642.196429 59.3482143,642.549107 59.8839286,643.120536 C60.5446429,642.995536 61.1785714,642.75 61.7410714,642.415179 C61.5223214,643.09375 61.0625,643.665179 60.4553571,644.026786 C61.0446429,643.964286 61.6160714,643.799107 62.1428571,643.571429 C61.7455357,644.15625 61.2455357,644.674107 60.6741071,645.089286 L60.6741071,645.089286 Z" id="icon-twitter" transform="translate(55.000000, 648.000000) rotate(-360.000000) translate(-55.000000, -648.000000) "></path>
        </g>
    </g>
</svg>